<svg xmlns="http://www.w3.org/2000/svg" xmlns:xlink="http://www.w3.org/1999/xlink" version="1.1" x="0px" y="0px" viewBox="0 0 96 120" enable-background="new 0 0 96 96" xml:space="preserve"><path d="M48,6.5C25.117,6.5,6.5,25.117,6.5,48S25.117,89.5,48,89.5S89.5,70.883,89.5,48S70.883,6.5,48,6.5z M52.436,69.177v7.017  h-8.865v-6.451c-3.291-0.416-6.373-1.516-8.512-3.049l-1.506-1.075l3.176-8.892l2.608,1.713c2.189,1.438,5.042,2.297,7.634,2.297  c2.997,0,5.013-1.485,5.013-3.697c0-1.527-0.674-3.214-5.563-5.197c-5.875-2.301-11.888-5.672-11.888-13.196  c0-5.757,3.597-10.347,9.415-12.06v-6.778h8.864v6.289c2.515,0.345,4.779,1.105,6.916,2.316l1.83,1.038l-3.336,8.799l-2.494-1.428  c-1.148-0.655-3.278-1.873-6.688-1.873c-3.792,0-4.201,2.103-4.201,3.006c0,1.341,0.438,2.408,6.29,4.897  c5.546,2.26,11.223,5.658,11.223,13.685C62.352,62.518,58.475,67.441,52.436,69.177z"/></svg>