<svg xmlns="http://www.w3.org/2000/svg" data-name="Layer 1" viewBox="0 0 64 80" x="0px" y="0px"><defs><style>.cls-1{fill:none;}</style></defs><path class="cls-1" d="M11.5,55a3,3,0,0,0,3,3h35a3,3,0,0,0,3-3V23h-41Z"/><path class="cls-1" d="M20.5,12.67V7.41L12.91,15h4.84C19,15,20.5,14,20.5,12.67Z"/><path d="M38.8,15.59A1.72,1.72,0,0,0,40.15,15a2.14,2.14,0,0,0,.5-1.48,2.14,2.14,0,0,0-.5-1.48,1.92,1.92,0,0,0-2.7,0,2.12,2.12,0,0,0-.51,1.49A2.12,2.12,0,0,0,37.45,15,1.73,1.73,0,0,0,38.8,15.59Z"/><path d="M49.5,4H21.09L9.5,15.59V55a5,5,0,0,0,5,5h35a5,5,0,0,0,5-5V9A5,5,0,0,0,49.5,4Zm-6.16,6.06h1.71l2.86,4.35V10.06h1.71v7H47.91l-2.86-4.33v4.33H43.34ZM35.68,11.7A3.5,3.5,0,0,1,37,10.42,3.72,3.72,0,0,1,38.8,10a3.76,3.76,0,0,1,1.82.46,3.47,3.47,0,0,1,1.3,1.28,3.71,3.71,0,0,1,.47,1.85,3.63,3.63,0,0,1-.48,1.86,3.33,3.33,0,0,1-1.3,1.28,3.79,3.79,0,0,1-3.62,0,3.36,3.36,0,0,1-1.31-1.28,3.76,3.76,0,0,1,0-3.71Zm-3.21,3a1.68,1.68,0,0,0-.43-.28c-.17-.07-.42-.15-.73-.25a8.23,8.23,0,0,1-1.11-.42,2.07,2.07,0,0,1-.74-.62,1.76,1.76,0,0,1-.31-1.07,1.84,1.84,0,0,1,.71-1.53,3.37,3.37,0,0,1,3.72,0,2,2,0,0,1,.76,1.54H32.49a.69.69,0,0,0-.25-.53.88.88,0,0,0-.59-.2.76.76,0,0,0-.5.17A.62.62,0,0,0,31,12a.58.58,0,0,0,.32.53,4.89,4.89,0,0,0,1,.41,10.68,10.68,0,0,1,1.11.44,2.13,2.13,0,0,1,.73.61,1.62,1.62,0,0,1,.31,1,2,2,0,0,1-.3,1.09,2.13,2.13,0,0,1-.89.78,2.92,2.92,0,0,1-1.37.29,3.57,3.57,0,0,1-1.38-.25,2.18,2.18,0,0,1-1-.74A2,2,0,0,1,29.13,15H31a.94.94,0,0,0,.27.6.92.92,0,0,0,.6.2,1,1,0,0,0,.6-.17.59.59,0,0,0,.22-.49A.61.61,0,0,0,32.47,14.69Zm-7.58,0a1.05,1.05,0,0,0,.18.67.63.63,0,0,0,.52.22.57.57,0,0,0,.48-.2.82.82,0,0,0,.17-.58V10.06H28v4.78a2.28,2.28,0,0,1-.62,1.71,2.34,2.34,0,0,1-1.69.6,2.5,2.5,0,0,1-1.78-.63,2.35,2.35,0,0,1-.67-1.79ZM20.5,7.41v5.26C20.5,14,19,15,17.75,15H12.91ZM52.5,55a3,3,0,0,1-3,3h-35a3,3,0,0,1-3-3V23h41Z"/><path d="M27.25,42.07h1.29a.52.52,0,0,1,.52.52v1.25a.52.52,0,0,1-.52.52H27.25a.52.52,0,0,1-.52-.52V42.59A.52.52,0,0,1,27.25,42.07Z"/><path d="M31.35,42.07h1.3a.51.51,0,0,1,.51.51v1.27a.51.51,0,0,1-.51.51h-1.3a.51.51,0,0,1-.51-.51V42.58A.51.51,0,0,1,31.35,42.07Z"/><path d="M35.46,42.07h1.3a.51.51,0,0,1,.51.51v1.27a.51.51,0,0,1-.51.51H35.45a.51.51,0,0,1-.51-.51V42.58A.51.51,0,0,1,35.46,42.07Z"/><path d="M22.11,40.34a3.44,3.44,0,0,1,.93.83,2.86,2.86,0,0,1,.47,1.16,10.16,10.16,0,0,1,.13,1.82,12.19,12.19,0,0,0,0,1.22,1.45,1.45,0,0,0,.15.6.51.51,0,0,0,.27.27,3.18,3.18,0,0,0,.55.12.77.77,0,0,1,.52.31,1.1,1.1,0,0,1,.21.7q0,1-1.23,1a2.87,2.87,0,0,1-1.36-.32,2.3,2.3,0,0,1-.93-.9,2.8,2.8,0,0,1-.33-1.34c0-.85,0-1.53-.05-2a6.28,6.28,0,0,0-.08-1,1.87,1.87,0,0,0-.37-.85,2.91,2.91,0,0,0-.64-.53,2.3,2.3,0,0,1-.57-.44,1,1,0,0,1-.17-.63,1,1,0,0,1,.49-.93,4.62,4.62,0,0,0,.86-.64,1.43,1.43,0,0,0,.36-.68,4.08,4.08,0,0,0,.12-.9c0-.33,0-1.11.05-2.36a2.45,2.45,0,0,1,2.62-2.54c.82,0,1.23.34,1.23,1a1.15,1.15,0,0,1-.2.71.74.74,0,0,1-.53.3,1.69,1.69,0,0,0-.68.21.67.67,0,0,0-.25.51,12.79,12.79,0,0,0-.08,1.5,11.7,11.7,0,0,1-.13,1.77,2.78,2.78,0,0,1-.44,1.17A3.05,3.05,0,0,1,22.11,40.34Z"/><path d="M40.93,39.46a2.78,2.78,0,0,1-.44-1.17,11.7,11.7,0,0,1-.13-1.77,12.79,12.79,0,0,0-.08-1.5.67.67,0,0,0-.25-.51,1.69,1.69,0,0,0-.68-.21.74.74,0,0,1-.53-.3,1.15,1.15,0,0,1-.2-.71c0-.66.41-1,1.23-1a2.45,2.45,0,0,1,2.62,2.54c0,1.25,0,2,.05,2.36a4.08,4.08,0,0,0,.12.9,1.43,1.43,0,0,0,.36.68,4.62,4.62,0,0,0,.86.64,1,1,0,0,1,.49.93,1,1,0,0,1-.17.63,2.3,2.3,0,0,1-.57.44,2.91,2.91,0,0,0-.64.53,1.87,1.87,0,0,0-.37.85,6.28,6.28,0,0,0-.08,1c0,.51,0,1.19-.05,2a2.8,2.8,0,0,1-.33,1.34,2.3,2.3,0,0,1-.93.9,2.87,2.87,0,0,1-1.36.32q-1.23,0-1.23-1a1.1,1.1,0,0,1,.21-.7.77.77,0,0,1,.52-.31,3.18,3.18,0,0,0,.55-.12.51.51,0,0,0,.27-.27,1.45,1.45,0,0,0,.15-.6,12.19,12.19,0,0,0,0-1.22,10.16,10.16,0,0,1,.13-1.82A2.86,2.86,0,0,1,41,41.17a3.44,3.44,0,0,1,.93-.83A3.05,3.05,0,0,1,40.93,39.46Z"/></svg>