<svg xmlns="http://www.w3.org/2000/svg" version="1.1" viewBox="-5.0 -10.0 110.0 135.0">
 <path d="m50 4.1914c25.312 0 45.832 20.52 45.832 45.832s-20.52 45.836-45.832 45.836-45.832-20.523-45.832-45.836 20.52-45.832 45.832-45.832zm0 4.168c-23.012 0-41.668 18.652-41.668 41.664 0 0.097656 0.003907 0.19141 0.003907 0.28516l3.6836 3.5312c0.31641 0.30469 0.68359 0.55859 1.082 0.75l4.3984 2.1094c0.8125 0.38672 1.4727 1.0312 1.8906 1.8281l2.168 4.1562c0.20703 0.40234 0.48438 0.76953 0.8125 1.082l1.875 1.8008c0.49609 0.47266 1.1016 0.81641 1.7422 1.0586 1.5234 0.58203 4.3711 1.9375 5.2617 4.1602 1.0938 2.7305 0.99609 3.8984 3.125 5.9922 3.4062 3.3516 7.5039 4.2266 8.8906 4.4375 0.32031 0.046875 0.67188 0.019531 0.83984-0.25781 0.32031-0.53125 0.60938-1.9414-0.35547-5.6758-0.65625-2.5391-0.59375-3.4414 0-5.9961 0.52734-2.2852 0.59375-3.7227 0-5.9922-1.2539-4.8164-4.3516-6.2891-9.375-7.4922-2.3672-0.56641-4.0664-0.45312-6.25-1.5-1.543-0.73828-2.5781-1.4258-3.125-2.9961-0.86328-2.4844 1.1953-4.1445 3.125-5.9961 3.125-2.9961 4.6875-2.9961 6.25-8.9883 1.5625-5.9922 0-8.9922 3.125-11.988 3.125-2.9961 4.6875 2.9961 9.375 2.9961 3.4531 0 3.7969-2.4648 6.25-5.9922 3.125-4.4961 3.125-8.1758 3.125-8.1758v-2.8281c0-0.54688-0.10938-1.0703-0.30078-1.5508-1.9453-0.27734-3.9297-0.42188-5.9492-0.42188zm22.566 6.6289c-1.168 0.39453-2.1641 1.3242-2.5898 2.6289l-0.78906 2.3984c-0.375 1.1328-1.4062 1.9219-2.6016 1.9805-0.69141 0.03125-1.3516 0.31641-1.8555 0.79688l-1.0391 1c-0.82031 0.78516-1.2812 1.875-1.2812 3.0078v0.375c0 0.64062-0.14844 1.2734-0.42969 1.8438l-2.2227 4.5078c-0.28125 0.57422-0.42578 1.2031-0.42578 1.8438v3.8164c0 0.93359-0.38281 1.8281-1.0586 2.4727-1.1758 1.1211-1.3984 2.9219-0.52734 4.2969l0.47656 0.75391c0.6875 1.0859 1.8906 1.7305 3.1758 1.6992 1.9336-0.050781 3.5742 1.4219 3.7266 3.3555l0.24219 2.9961c0.078124 0.97656 0.5 1.8945 1.1836 2.5898l0.98438 0.99609c2.0117 2.043 5.4375 1.4883 6.7031-1.082l0.058594-0.12109c0.28516-0.57031 0.42969-1.2031 0.42969-1.8438v-6.6953c0-1.0938 0.43359-2.1445 1.1992-2.9219l1.0234-1.0391c0.55859-0.56641 1.2734-0.96484 2.0508-1.1406l8.8867-2.0039c1.0664-0.23828 1.9531-0.875 2.5117-1.7109-2.6172-10.352-9.1016-19.164-17.832-24.801z" fill-rule="evenodd"/>
</svg>