<?xml version="1.0" encoding="UTF-8"?>
<svg width="1200pt" height="1200pt" version="1.1" viewBox="0 0 1200 1200" xmlns="http://www.w3.org/2000/svg">
 <path d="m1058.3 50.016c50.625 0 91.641 41.016 91.641 91.641v916.69c0 50.625-41.016 91.641-91.641 91.641h-916.69c-50.625 0-91.641-41.016-91.641-91.641v-916.69c0-50.625 41.016-91.641 91.641-91.641zm-812.02 680.02c-4.9688 4.9688-11.25 7.4531-18.891 7.4531s-13.969-2.4844-18.938-7.4531c-4.9219-4.9688-7.4062-11.25-7.4062-18.891v-179.9l-20.625 14.906c-6.1406 3.8438-12.422 5.1562-18.938 4.0312-6.4688-1.1719-11.625-4.7812-15.469-10.922-3.7969-6.0938-5.1562-12.188-3.9844-18.328 1.125-6.0938 4.3594-11.062 9.7031-14.859l51.562-36.703c3.0938-2.2969 6.3281-3.9844 9.75-5.1562 3.4688-1.125 7.0781-1.6875 10.875-1.6875 8.4375 0 15.469 2.8594 21.234 8.5781 5.7188 5.7188 8.5781 12.797 8.5781 21.188v218.86c0 7.6406-2.4844 13.922-7.4531 18.891zm252.66 7.4531h-132.89c-6.1406 0-11.484-2.2969-16.078-6.8438-4.5469-4.5938-6.8438-9.9375-6.8438-16.078v-13.734c3.0469-9.1406 5.3438-14.531 6.8438-16.031l91.688-91.688c10.688-10.688 17.578-19.641 20.625-26.906s4.5938-15.094 4.5938-23.484c0-9.1875-3.6562-16.828-10.922-22.922-7.2188-6.0938-16.594-9.1875-28.031-9.1875-6.1406 0-11.672 1.1719-16.641 3.4688s-9.375 5.3438-13.172 9.1406c-4.5938 4.5938-9.9375 8.0156-16.031 10.312-6.1406 2.2969-12.234 2.2969-18.328 0-6.1406-2.2969-10.688-6.4688-13.781-12.609-3.0469-6.0938-2.6719-11.812 1.1719-17.156 8.3906-12.984 19.453-23.109 33.234-30.375 13.734-7.2656 28.266-10.875 43.547-10.875 25.969 0 47.344 7.4531 64.125 22.312 16.828 14.906 25.219 33.422 25.219 55.594 0 15.281-3.4219 29.766-10.312 43.547-6.8438 13.734-17.156 27.469-30.938 41.25-6.0938 6.0938-14.297 14.484-24.609 25.219-10.312 10.688-23.484 23.672-39.562 38.953l2.2969 2.2969h84.797c6.0938 0 11.484 2.25 16.031 6.8438 4.5938 4.5938 6.8906 9.9375 6.8906 16.031 0 6.1406-2.2969 11.484-6.8906 16.078-4.5469 4.5469-9.9375 6.8438-16.031 6.8438zm249.79-22.922c-16.828 15.281-38.953 22.922-66.469 22.922-19.828 0-37.031-3.9844-51.562-12-14.484-8.0156-25.969-19.688-34.359-34.969-3.0469-6.0938-3.0469-12.047 0-17.766s8.0156-10.125 14.906-13.172c6.0938-2.2969 12-2.4844 17.766-0.5625 5.7188 1.9219 10.5 5.5312 14.297 10.875 4.5938 6.8906 9.9375 11.859 16.031 14.906 6.1406 3.0469 13.781 4.5938 22.922 4.5938 10.688 0 20.25-3.6562 28.641-10.922 8.4375-7.2188 12.609-15.844 12.609-25.781 0-10.688-4.5938-19.078-13.734-25.172-9.1875-6.1406-21.375-9.1875-36.656-9.1875-6.1406 0-11.484-2.2969-16.078-6.8906-4.5469-4.5469-6.8438-9.8906-6.8438-16.031 0-6.0938 2.2969-11.438 6.8438-16.031 4.5938-4.5938 9.9375-6.8906 16.078-6.8906 12.188 0 22.125-3.0469 29.766-9.1406 7.6406-6.1406 11.484-14.531 11.484-25.219 0-8.3906-3.2812-15.469-9.75-21.188-6.5156-5.7188-14.719-8.625-24.656-8.625-5.3438 0-10.312 0.98438-14.859 2.9062-4.5938 1.875-8.8125 4.7344-12.609 8.5781-4.5938 4.5938-9.9375 7.8281-16.078 9.75-6.0938 1.875-12.188 1.6875-18.328-0.60938-6.0938-3.0469-10.688-7.2188-13.734-12.562-3.0469-5.3906-2.6719-10.734 1.1719-16.078 8.3906-10.688 19.078-19.641 32.062-26.906s27.094-10.875 42.375-10.875c24.469 0 44.719 6.6562 60.75 20.016 16.031 13.406 24.047 30.375 24.047 51 0 12.984-3.0469 24.281-9.1406 33.797-6.1406 9.5625-14.531 17.391-25.219 23.484v2.2969c13.734 6.1406 24.422 14.531 32.062 25.219s11.484 22.922 11.484 36.656c0 24.469-8.3906 44.344-25.219 59.578zm103.31 22.922c12.656 0 22.922-10.266 22.922-22.922s-10.266-22.875-22.922-22.875-22.922 10.219-22.922 22.875 10.266 22.922 22.922 22.922zm114.56-22.922c0 12.656-10.266 22.922-22.922 22.922s-22.922-10.266-22.922-22.922 10.266-22.875 22.922-22.875 22.922 10.219 22.922 22.875zm68.766 22.922c12.656 0 22.922-10.266 22.922-22.922s-10.266-22.875-22.922-22.875-22.922 10.219-22.922 22.875 10.266 22.922 22.922 22.922z" fill-rule="evenodd"/>
</svg>
