<svg xmlns="http://www.w3.org/2000/svg" version="1.1" viewBox="-5.0 -10.0 110.0 135.0">
 <path d="m37.18 48.422c0.20703 0.5 0.32812 1.043 0.32812 1.582 0 1.082-0.45703 2.125-1.25 2.957-0.375 0.375-0.83594 0.66797-1.332 0.875-0.5 0.20703-1.043 0.33203-1.5859 0.33203-0.58203 0-1.082-0.125-1.625-0.33203-0.5-0.20703-0.95703-0.5-1.3359-0.875-0.78906-0.78906-1.207-1.832-1.207-2.957 0-0.54297 0.085937-1.082 0.29297-1.582 0.20703-0.54297 0.54297-1 0.91406-1.375 0.96094-0.95703 2.418-1.418 3.75-1.1211 0.29297 0.039063 0.54297 0.12109 0.79297 0.20703 0.25 0.125 0.49609 0.25 0.70703 0.41406 0.25 0.125 0.45703 0.33203 0.62109 0.5 0.42969 0.375 0.71875 0.83203 0.92969 1.375zm-12.18-15.09c2.3047 0 4.168-1.8633 4.168-4.168 0-2.3008-1.8633-4.1641-4.168-4.1641-9.1914 0-16.668 7.4766-16.668 16.668v16.668c0 9.1914 7.4766 16.668 16.668 16.668 2.3047 0 4.168-1.8633 4.168-4.168 0-2.3047-1.8633-4.168-4.168-4.168-4.5938 0-8.332-3.7383-8.332-8.332v-16.668c0-4.5938 3.7383-8.3359 8.332-8.3359zm44.594 13.715c-0.16797-0.16797-0.375-0.375-0.62109-0.5-0.21094-0.16797-0.46094-0.28906-0.70703-0.41406-0.25391-0.085937-0.5-0.16797-0.79297-0.20703-1.3359-0.29297-2.793 0.16797-3.75 1.1211-0.78906 0.79297-1.207 1.875-1.207 2.957 0 1.082 0.41797 2.125 1.207 2.957 0.79297 0.75391 1.8359 1.207 2.957 1.207 1.0859 0 2.168-0.45703 2.918-1.207 0.79297-0.78906 1.25-1.875 1.25-2.957-0.007812-1.082-0.46094-2.1641-1.2539-2.957zm-16.668 0c-0.16797-0.16797-0.375-0.375-0.62109-0.5-0.21094-0.16797-0.46094-0.28906-0.70703-0.375-0.25391-0.125-0.5-0.20703-0.79297-0.25-1.3359-0.29297-2.793 0.16797-3.75 1.1211-0.375 0.375-0.70703 0.83594-0.91406 1.375-0.20703 0.5-0.29297 1.043-0.29297 1.582 0 0.54297 0.085938 1.082 0.29297 1.582s0.54297 0.96094 0.91406 1.375c0.37891 0.375 0.83594 0.66797 1.3359 0.875 0.54297 0.20703 1.043 0.33203 1.625 0.33203 0.54688 0 1.0859-0.125 1.5859-0.33203 0.49609-0.20703 0.95703-0.5 1.332-0.875 0.79297-0.83594 1.25-1.875 1.25-2.957 0-0.54297-0.12109-1.082-0.32812-1.582-0.22266-0.53906-0.51172-0.99609-0.92969-1.3711zm22.074-22.047c-2.3047 0-4.168 1.8633-4.168 4.168 0 2.3047 1.8633 4.168 4.168 4.168 4.5938 0 8.332 3.7383 8.332 8.332v16.668c0 4.5938-3.7383 8.332-8.332 8.332-2.3047 0-4.168 1.8633-4.168 4.168 0 2.3047 1.8633 4.168 4.168 4.168 9.1914 0 16.668-7.4766 16.668-16.668v-16.668c0-9.1914-7.4766-16.668-16.668-16.668z"/>
</svg>