<svg xmlns="http://www.w3.org/2000/svg" version="1.1" viewBox="-5.0 -10.0 110.0 135.0">
 <path d="m29.961 11.352h-0.003907c-1.1133 0-2.0117 0.90234-2.0117 2.0156v15.961h-3.0078v-8.8945l-5.9062 0.003906c-5.0352 0-9.1016 4.082-9.1016 9.1172v6.8359h80.141v-6.8359c0-5.0391-4.0859-9.125-9.125-9.125h-8.8906v-7.0625c0-1.1133-0.90234-2.0156-2.0156-2.0156-1.1133 0-2.0156 0.90234-2.0156 2.0156v15.961h-3.0039v-8.8984l-33.043 0.003906v-7.0664c0-1.1133-0.90234-2.0156-2.0156-2.0156zm60.105 29.086-80.137 0.003906v39.082c0 5.0234 4.0586 9.1172 9.0781 9.125h61.938c5.0391 0 9.125-4.0859 9.125-9.125 0-0.003907-0.003906-39.086-0.003906-39.086z"/>
</svg>