<svg xmlns="http://www.w3.org/2000/svg" version="1.1" viewBox="-5.0 -10.0 110.0 135.0">
 <path d="m74.961 16.527h-51.973c-4.1289 0-7.4805 3.3438-7.4883 7.4727v52c0 4.1367 3.3516 7.4883 7.4883 7.4883h51.973c4.1328 0 7.4883-3.3516 7.4883-7.4883v-52c-0.011719-4.1289-3.3594-7.4727-7.4883-7.4727zm-6.2031 39.262c0.62891 0 1.2305 0.26563 1.6562 0.73438 0.42188 0.46875 0.62891 1.0938 0.57031 1.7188-0.15625 1.1602-1.1523 2.0234-2.3242 2h-12.098l-2.5234 9.4297c-0.16016 0.60938-0.57422 1.1211-1.1367 1.4102-0.5625 0.28906-1.2188 0.32422-1.8086 0.10156-1.0938-0.44141-1.6758-1.6328-1.3516-2.7617l2.1914-8.1758-11.418-0.003906-2.5156 9.4453c-0.16406 0.61328-0.57812 1.1289-1.1406 1.418-0.56641 0.28906-1.2266 0.32422-1.8203 0.09375-1.0859-0.44141-1.668-1.6328-1.3477-2.7617l2.1914-8.1758h-6.6836c-0.62891-0.003907-1.2344-0.26953-1.6562-0.73828-0.42578-0.46484-0.63281-1.0898-0.57031-1.7188 0.15234-1.1602 1.1523-2.0195 2.3242-2h7.7891l3.1016-11.574-10.988-0.003907c-0.62891 0-1.2344-0.26562-1.6562-0.73437-0.42578-0.46484-0.63281-1.0898-0.57031-1.7188 0.15234-1.1602 1.1523-2.0234 2.3242-2h12.098l2.5234-9.4297h-0.003907c0.16016-0.61328 0.56641-1.1328 1.1289-1.4258 0.55859-0.29297 1.2188-0.33594 1.8125-0.11719 1.0898 0.4375 1.6719 1.6328 1.3477 2.7617l-2.2031 8.1758h11.414l2.5273-9.4297 0.003906 0.003906c0.16016-0.61328 0.57813-1.1289 1.1406-1.418 0.56641-0.28906 1.2305-0.32422 1.8203-0.09375 1.0898 0.44141 1.6719 1.6328 1.3516 2.7617l-2.1914 8.1758h6.6914c0.62891 0 1.2344 0.26562 1.6562 0.73438 0.42578 0.46875 0.63281 1.0938 0.57031 1.7227-0.15625 1.1602-1.1523 2.0195-2.3242 2h-7.7969l-3.1016 11.574z"/>
 <path d="m41.711 55.789h11.422l3.1016-11.578h-11.418z"/>
</svg>